<?xml version="1.0" encoding="UTF-8" standalone="no"?>
<!DOCTYPE svg PUBLIC "-//W3C//DTD SVG 1.1//EN"
 "http://www.w3.org/Graphics/SVG/1.1/DTD/svg11.dtd">
<!-- Generated by graphviz version 14.0.1 (20251006.0113)
 -->
<!-- Title: G Pages: 1 -->
<svg width="1068pt" height="609pt"
 viewBox="0.00 0.00 1068.00 609.00" xmlns="http://www.w3.org/2000/svg" xmlns:xlink="http://www.w3.org/1999/xlink">
<g id="graph0" class="graph" transform="scale(1 1) rotate(0) translate(21.6 587.45)">
<title>G</title>
<polygon fill="#111111" stroke="none" points="-21.6,21.6 -21.6,-587.45 1046.6,-587.45 1046.6,21.6 -21.6,21.6"/>
<!-- Experience/Camera.js -->
<g id="node1" class="node">
<title>Experience/Camera.js</title>
<path fill="none" stroke="#ff6c60" d="M141.58,-317.85C141.58,-317.85 7.92,-317.85 7.92,-317.85 3.96,-317.85 0,-313.89 0,-309.93 0,-309.93 0,-302.01 0,-302.01 0,-298.05 3.96,-294.1 7.92,-294.1 7.92,-294.1 141.58,-294.1 141.58,-294.1 145.54,-294.1 149.5,-298.05 149.5,-302.01 149.5,-302.01 149.5,-309.93 149.5,-309.93 149.5,-313.89 145.54,-317.85 141.58,-317.85"/>
<text xml:space="preserve" text-anchor="middle" x="74.75" y="-300.55" font-family="Arial" font-size="14.00" fill="#ff6c60">Experience/Camera.js</text>
</g>
<!-- Experience/Experience.js -->
<g id="node2" class="node">
<title>Experience/Experience.js</title>
<path fill="none" stroke="#ff6c60" d="M345.83,-317.85C345.83,-317.85 193.42,-317.85 193.42,-317.85 189.46,-317.85 185.5,-313.89 185.5,-309.93 185.5,-309.93 185.5,-302.01 185.5,-302.01 185.5,-298.05 189.46,-294.1 193.42,-294.1 193.42,-294.1 345.83,-294.1 345.83,-294.1 349.79,-294.1 353.75,-298.05 353.75,-302.01 353.75,-302.01 353.75,-309.93 353.75,-309.93 353.75,-313.89 349.79,-317.85 345.83,-317.85"/>
<text xml:space="preserve" text-anchor="middle" x="269.62" y="-300.55" font-family="Arial" font-size="14.00" fill="#ff6c60">Experience/Experience.js</text>
</g>
<!-- Experience/Camera.js&#45;&gt;Experience/Experience.js -->
<g id="edge1" class="edge">
<title>Experience/Camera.js&#45;&gt;Experience/Experience.js</title>
<path fill="none" stroke="#757575" d="M149.77,-299.39C157.64,-299.27 165.72,-299.21 173.79,-299.22"/>
<polygon fill="#757575" stroke="#757575" points="173.63,-302.72 183.64,-299.27 173.66,-295.72 173.63,-302.72"/>
</g>
<!-- Experience/Experience.js&#45;&gt;Experience/Camera.js -->
<g id="edge2" class="edge">
<title>Experience/Experience.js&#45;&gt;Experience/Camera.js</title>
<path fill="none" stroke="#757575" d="M185.16,-312.67C177.16,-312.73 169.03,-312.74 161.01,-312.68"/>
<polygon fill="#757575" stroke="#757575" points="161.32,-309.18 151.28,-312.57 161.24,-316.18 161.32,-309.18"/>
</g>
<!-- Experience/Game.js -->
<g id="node3" class="node">
<title>Experience/Game.js</title>
<path fill="none" stroke="#ff6c60" d="M549.33,-565.85C549.33,-565.85 426.17,-565.85 426.17,-565.85 422.21,-565.85 418.25,-561.89 418.25,-557.93 418.25,-557.93 418.25,-550.01 418.25,-550.01 418.25,-546.05 422.21,-542.1 426.17,-542.1 426.17,-542.1 549.33,-542.1 549.33,-542.1 553.29,-542.1 557.25,-546.05 557.25,-550.01 557.25,-550.01 557.25,-557.93 557.25,-557.93 557.25,-561.89 553.29,-565.85 549.33,-565.85"/>
<text xml:space="preserve" text-anchor="middle" x="487.75" y="-548.55" font-family="Arial" font-size="14.00" fill="#ff6c60">Experience/Game.js</text>
</g>
<!-- Experience/Experience.js&#45;&gt;Experience/Game.js -->
<g id="edge3" class="edge">
<title>Experience/Experience.js&#45;&gt;Experience/Game.js</title>
<path fill="none" stroke="#757575" d="M274.21,-318.18C284.27,-355.85 316.96,-468.59 389.75,-523.97 398.54,-530.66 409.02,-535.32 419.78,-538.68"/>
<polygon fill="#757575" stroke="#757575" points="418.56,-541.97 429.12,-541.24 420.4,-535.22 418.56,-541.97"/>
</g>
<!-- Experience/Loading.js -->
<g id="node4" class="node">
<title>Experience/Loading.js</title>
<path fill="none" stroke="#ff6c60" d="M554.21,-401.85C554.21,-401.85 421.29,-401.85 421.29,-401.85 417.33,-401.85 413.38,-397.89 413.38,-393.93 413.38,-393.93 413.38,-386.01 413.38,-386.01 413.38,-382.05 417.33,-378.1 421.29,-378.1 421.29,-378.1 554.21,-378.1 554.21,-378.1 558.17,-378.1 562.12,-382.05 562.12,-386.01 562.12,-386.01 562.12,-393.93 562.12,-393.93 562.12,-397.89 558.17,-401.85 554.21,-401.85"/>
<text xml:space="preserve" text-anchor="middle" x="487.75" y="-384.55" font-family="Arial" font-size="14.00" fill="#ff6c60">Experience/Loading.js</text>
</g>
<!-- Experience/Experience.js&#45;&gt;Experience/Loading.js -->
<g id="edge4" class="edge">
<title>Experience/Experience.js&#45;&gt;Experience/Loading.js</title>
<path fill="none" stroke="#757575" d="M301.89,-318.09C325.3,-330.45 358.54,-348.58 389.75,-359.97 407.28,-366.37 427.33,-371.11 444.64,-375.13"/>
<polygon fill="#757575" stroke="#757575" points="443.55,-378.47 454.09,-377.34 445.15,-371.66 443.55,-378.47"/>
</g>
<!-- Experience/Renderer.js -->
<g id="node5" class="node">
<title>Experience/Renderer.js</title>
<path fill="none" stroke="#ff6c60" d="M557.96,-317.85C557.96,-317.85 417.54,-317.85 417.54,-317.85 413.58,-317.85 409.62,-313.89 409.62,-309.93 409.62,-309.93 409.62,-302.01 409.62,-302.01 409.62,-298.05 413.58,-294.1 417.54,-294.1 417.54,-294.1 557.96,-294.1 557.96,-294.1 561.92,-294.1 565.88,-298.05 565.88,-302.01 565.88,-302.01 565.88,-309.93 565.88,-309.93 565.88,-313.89 561.92,-317.85 557.96,-317.85"/>
<text xml:space="preserve" text-anchor="middle" x="487.75" y="-300.55" font-family="Arial" font-size="14.00" fill="#ff6c60">Experience/Renderer.js</text>
</g>
<!-- Experience/Experience.js&#45;&gt;Experience/Renderer.js -->
<g id="edge5" class="edge">
<title>Experience/Experience.js&#45;&gt;Experience/Renderer.js</title>
<path fill="none" stroke="#757575" d="M354.18,-299.38C368.52,-299.19 383.47,-299.17 397.95,-299.32"/>
<polygon fill="#757575" stroke="#757575" points="397.87,-302.82 407.92,-299.45 397.96,-295.82 397.87,-302.82"/>
</g>
<!-- Experience/Utils/Debug.js -->
<g id="node6" class="node">
<title>Experience/Utils/Debug.js</title>
<path fill="none" stroke="#cfffac" d="M565.08,-275.85C565.08,-275.85 410.42,-275.85 410.42,-275.85 406.46,-275.85 402.5,-271.89 402.5,-267.93 402.5,-267.93 402.5,-260.01 402.5,-260.01 402.5,-256.05 406.46,-252.1 410.42,-252.1 410.42,-252.1 565.08,-252.1 565.08,-252.1 569.04,-252.1 573,-256.05 573,-260.01 573,-260.01 573,-267.93 573,-267.93 573,-271.89 569.04,-275.85 565.08,-275.85"/>
<text xml:space="preserve" text-anchor="middle" x="487.75" y="-258.55" font-family="Arial" font-size="14.00" fill="#cfffac">Experience/Utils/Debug.js</text>
</g>
<!-- Experience/Experience.js&#45;&gt;Experience/Utils/Debug.js -->
<g id="edge6" class="edge">
<title>Experience/Experience.js&#45;&gt;Experience/Utils/Debug.js</title>
<path fill="none" stroke="#757575" d="M334.3,-293.6C358.71,-288.85 386.77,-283.4 412.11,-278.48"/>
<polygon fill="#757575" stroke="#757575" points="412.52,-281.96 421.67,-276.62 411.19,-275.09 412.52,-281.96"/>
</g>
<!-- Experience/Utils/EventEmitter.js -->
<g id="node7" class="node">
<title>Experience/Utils/EventEmitter.js</title>
<path fill="none" stroke="#cfffac" d="M825.96,-441.85C825.96,-441.85 633.79,-441.85 633.79,-441.85 629.83,-441.85 625.88,-437.89 625.88,-433.93 625.88,-433.93 625.88,-426.01 625.88,-426.01 625.88,-422.05 629.83,-418.1 633.79,-418.1 633.79,-418.1 825.96,-418.1 825.96,-418.1 829.92,-418.1 833.88,-422.05 833.88,-426.01 833.88,-426.01 833.88,-433.93 833.88,-433.93 833.88,-437.89 829.92,-441.85 825.96,-441.85"/>
<text xml:space="preserve" text-anchor="middle" x="729.88" y="-424.55" font-family="Arial" font-size="14.00" fill="#cfffac">Experience/Utils/EventEmitter.js</text>
</g>
<!-- Experience/Experience.js&#45;&gt;Experience/Utils/EventEmitter.js -->
<g id="edge7" class="edge">
<title>Experience/Experience.js&#45;&gt;Experience/Utils/EventEmitter.js</title>
<path fill="none" stroke="#757575" d="M279.77,-318.25C297.81,-341.35 340.52,-390.78 389.75,-410.97 460.55,-440.01 546.72,-444.49 614.48,-441.85"/>
<polygon fill="#757575" stroke="#757575" points="614.28,-445.36 624.11,-441.41 613.96,-438.37 614.28,-445.36"/>
</g>
<!-- Experience/Utils/Resources.js -->
<g id="node8" class="node">
<title>Experience/Utils/Resources.js</title>
<path fill="none" stroke="#ff6c60" d="M577.46,-359.85C577.46,-359.85 398.04,-359.85 398.04,-359.85 394.08,-359.85 390.12,-355.89 390.12,-351.93 390.12,-351.93 390.12,-344.01 390.12,-344.01 390.12,-340.05 394.08,-336.1 398.04,-336.1 398.04,-336.1 577.46,-336.1 577.46,-336.1 581.42,-336.1 585.38,-340.05 585.38,-344.01 585.38,-344.01 585.38,-351.93 585.38,-351.93 585.38,-355.89 581.42,-359.85 577.46,-359.85"/>
<text xml:space="preserve" text-anchor="middle" x="487.75" y="-342.55" font-family="Arial" font-size="14.00" fill="#ff6c60">Experience/Utils/Resources.js</text>
</g>
<!-- Experience/Experience.js&#45;&gt;Experience/Utils/Resources.js -->
<g id="edge8" class="edge">
<title>Experience/Experience.js&#45;&gt;Experience/Utils/Resources.js</title>
<path fill="none" stroke="#757575" d="M354.18,-315.62C382.92,-320.83 414.1,-327.18 439,-332.98"/>
<polygon fill="#757575" stroke="#757575" points="437.95,-336.33 448.49,-335.25 439.58,-329.52 437.95,-336.33"/>
</g>
<!-- Experience/Utils/Sizes.js -->
<g id="node9" class="node">
<title>Experience/Utils/Sizes.js</title>
<path fill="none" stroke="#ff6c60" d="M561.71,-523.85C561.71,-523.85 413.79,-523.85 413.79,-523.85 409.83,-523.85 405.88,-519.89 405.88,-515.93 405.88,-515.93 405.88,-508.01 405.88,-508.01 405.88,-504.05 409.83,-500.1 413.79,-500.1 413.79,-500.1 561.71,-500.1 561.71,-500.1 565.67,-500.1 569.62,-504.05 569.62,-508.01 569.62,-508.01 569.62,-515.93 569.62,-515.93 569.62,-519.89 565.67,-523.85 561.71,-523.85"/>
<text xml:space="preserve" text-anchor="middle" x="487.75" y="-506.55" font-family="Arial" font-size="14.00" fill="#ff6c60">Experience/Utils/Sizes.js</text>
</g>
<!-- Experience/Experience.js&#45;&gt;Experience/Utils/Sizes.js -->
<g id="edge9" class="edge">
<title>Experience/Experience.js&#45;&gt;Experience/Utils/Sizes.js</title>
<path fill="none" stroke="#757575" d="M276.42,-318.19C289.94,-350.9 327.27,-438.67 389.75,-481.97 399.67,-488.85 411.43,-493.53 423.27,-496.89"/>
<polygon fill="#757575" stroke="#757575" points="422.1,-500.21 432.65,-499.26 423.81,-493.42 422.1,-500.21"/>
</g>
<!-- Experience/Utils/Time.js -->
<g id="node10" class="node">
<title>Experience/Utils/Time.js</title>
<path fill="none" stroke="#c6c5fe" d="M560.58,-481.85C560.58,-481.85 414.92,-481.85 414.92,-481.85 410.96,-481.85 407,-477.89 407,-473.93 407,-473.93 407,-466.01 407,-466.01 407,-462.05 410.96,-458.1 414.92,-458.1 414.92,-458.1 560.58,-458.1 560.58,-458.1 564.54,-458.1 568.5,-462.05 568.5,-466.01 568.5,-466.01 568.5,-473.93 568.5,-473.93 568.5,-477.89 564.54,-481.85 560.58,-481.85"/>
<text xml:space="preserve" text-anchor="middle" x="487.75" y="-464.55" font-family="Arial" font-size="14.00" fill="#c6c5fe">Experience/Utils/Time.js</text>
</g>
<!-- Experience/Experience.js&#45;&gt;Experience/Utils/Time.js -->
<g id="edge10" class="edge">
<title>Experience/Experience.js&#45;&gt;Experience/Utils/Time.js</title>
<path fill="none" stroke="#757575" d="M277.53,-318.06C293.58,-345.02 336.13,-410.33 389.75,-443.97 395.71,-447.71 402.2,-450.92 408.91,-453.67"/>
<polygon fill="#757575" stroke="#757575" points="407.57,-456.9 418.16,-457.09 410,-450.34 407.57,-456.9"/>
</g>
<!-- Experience/Utils/UserInputs.js -->
<g id="node11" class="node">
<title>Experience/Utils/UserInputs.js</title>
<path fill="none" stroke="#ff6c60" d="M577.83,-233.85C577.83,-233.85 397.67,-233.85 397.67,-233.85 393.71,-233.85 389.75,-229.89 389.75,-225.93 389.75,-225.93 389.75,-218.01 389.75,-218.01 389.75,-214.05 393.71,-210.1 397.67,-210.1 397.67,-210.1 577.83,-210.1 577.83,-210.1 581.79,-210.1 585.75,-214.05 585.75,-218.01 585.75,-218.01 585.75,-225.93 585.75,-225.93 585.75,-229.89 581.79,-233.85 577.83,-233.85"/>
<text xml:space="preserve" text-anchor="middle" x="487.75" y="-216.55" font-family="Arial" font-size="14.00" fill="#ff6c60">Experience/Utils/UserInputs.js</text>
</g>
<!-- Experience/Experience.js&#45;&gt;Experience/Utils/UserInputs.js -->
<g id="edge11" class="edge">
<title>Experience/Experience.js&#45;&gt;Experience/Utils/UserInputs.js</title>
<path fill="none" stroke="#757575" d="M281.33,-293.81C299.9,-278.54 339.88,-254.04 378.85,-238.18"/>
<polygon fill="#757575" stroke="#757575" points="379.78,-241.57 387.84,-234.7 377.25,-235.05 379.78,-241.57"/>
</g>
<!-- Experience/World/World.js -->
<g id="node12" class="node">
<title>Experience/World/World.js</title>
<path fill="none" stroke="#ff6c60" d="M567.33,-115.85C567.33,-115.85 408.17,-115.85 408.17,-115.85 404.21,-115.85 400.25,-111.89 400.25,-107.93 400.25,-107.93 400.25,-100.01 400.25,-100.01 400.25,-96.05 404.21,-92.1 408.17,-92.1 408.17,-92.1 567.33,-92.1 567.33,-92.1 571.29,-92.1 575.25,-96.05 575.25,-100.01 575.25,-100.01 575.25,-107.93 575.25,-107.93 575.25,-111.89 571.29,-115.85 567.33,-115.85"/>
<text xml:space="preserve" text-anchor="middle" x="487.75" y="-98.55" font-family="Arial" font-size="14.00" fill="#ff6c60">Experience/World/World.js</text>
</g>
<!-- Experience/Experience.js&#45;&gt;Experience/World/World.js -->
<g id="edge12" class="edge">
<title>Experience/Experience.js&#45;&gt;Experience/World/World.js</title>
<path fill="none" stroke="#757575" d="M273.84,-293.75C285.03,-259.85 325.13,-166.99 389.75,-120.97 389.95,-120.83 390.16,-120.68 390.36,-120.54"/>
<polygon fill="#757575" stroke="#757575" points="392.08,-123.59 398.78,-115.39 388.43,-117.62 392.08,-123.59"/>
</g>
<!-- Experience/Game.js&#45;&gt;Experience/Experience.js -->
<g id="edge13" class="edge">
<title>Experience/Game.js&#45;&gt;Experience/Experience.js</title>
<path fill="none" stroke="#757575" d="M417.96,-555.86C407.84,-552.78 398.05,-548.28 389.75,-541.97 318.23,-487.56 285.42,-377.76 274.75,-329.38"/>
<polygon fill="#757575" stroke="#757575" points="278.2,-328.79 272.76,-319.7 271.35,-330.2 278.2,-328.79"/>
</g>
<!-- Experience/Loading.js&#45;&gt;Experience/Experience.js -->
<g id="edge14" class="edge">
<title>Experience/Loading.js&#45;&gt;Experience/Experience.js</title>
<path fill="none" stroke="#757575" d="M413.05,-385.19C405.1,-383.11 397.2,-380.69 389.75,-377.97 352.99,-364.56 313.42,-341.78 290.4,-325.09"/>
<polygon fill="#757575" stroke="#757575" points="292.59,-322.36 282.53,-319.05 288.33,-327.92 292.59,-322.36"/>
</g>
<!-- Experience/Loading.js&#45;&gt;Experience/Utils/EventEmitter.js -->
<g id="edge15" class="edge">
<title>Experience/Loading.js&#45;&gt;Experience/Utils/EventEmitter.js</title>
<path fill="none" stroke="#757575" d="M562.43,-402.24C588.12,-406.52 617.16,-411.36 643.71,-415.78"/>
<polygon fill="#757575" stroke="#757575" points="642.99,-419.21 653.43,-417.4 644.14,-412.31 642.99,-419.21"/>
</g>
<!-- Experience/Renderer.js&#45;&gt;Experience/Experience.js -->
<g id="edge16" class="edge">
<title>Experience/Renderer.js&#45;&gt;Experience/Experience.js</title>
<path fill="none" stroke="#757575" d="M409.43,-312.47C395.15,-312.71 380.09,-312.78 365.36,-312.67"/>
<polygon fill="#757575" stroke="#757575" points="365.73,-309.18 355.7,-312.58 365.66,-316.18 365.73,-309.18"/>
</g>
<!-- Experience/Utils/Resources.js&#45;&gt;Experience/Experience.js -->
<g id="edge20" class="edge">
<title>Experience/Utils/Resources.js&#45;&gt;Experience/Experience.js</title>
<path fill="none" stroke="#757575" d="M389.77,-335.84C365.04,-331.18 339.53,-325.89 318.48,-320.99"/>
<polygon fill="#757575" stroke="#757575" points="319.3,-317.58 308.76,-318.66 317.67,-324.39 319.3,-317.58"/>
</g>
<!-- Experience/Utils/Resources.js&#45;&gt;Experience/Utils/EventEmitter.js -->
<g id="edge21" class="edge">
<title>Experience/Utils/Resources.js&#45;&gt;Experience/Utils/EventEmitter.js</title>
<path fill="none" stroke="#757575" d="M553.9,-360.29C564.63,-362.83 575.57,-365.73 585.75,-368.97 623.64,-381.03 665.27,-399.38 693.82,-412.81"/>
<polygon fill="#757575" stroke="#757575" points="692.19,-415.91 702.72,-417.04 695.19,-409.59 692.19,-415.91"/>
</g>
<!-- Experience/sources.js -->
<g id="node16" class="node">
<title>Experience/sources.js</title>
<path fill="none" stroke="#cfffac" d="M795.96,-359.85C795.96,-359.85 663.79,-359.85 663.79,-359.85 659.83,-359.85 655.88,-355.89 655.88,-351.93 655.88,-351.93 655.88,-344.01 655.88,-344.01 655.88,-340.05 659.83,-336.1 663.79,-336.1 663.79,-336.1 795.96,-336.1 795.96,-336.1 799.92,-336.1 803.88,-340.05 803.88,-344.01 803.88,-344.01 803.88,-351.93 803.88,-351.93 803.88,-355.89 799.92,-359.85 795.96,-359.85"/>
<text xml:space="preserve" text-anchor="middle" x="729.88" y="-342.55" font-family="Arial" font-size="14.00" fill="#cfffac">Experience/sources.js</text>
</g>
<!-- Experience/Utils/Resources.js&#45;&gt;Experience/sources.js -->
<g id="edge22" class="edge">
<title>Experience/Utils/Resources.js&#45;&gt;Experience/sources.js</title>
<path fill="none" stroke="#757575" d="M585.73,-347.97C605.11,-347.97 625.33,-347.97 644.26,-347.97"/>
<polygon fill="#757575" stroke="#757575" points="644.04,-351.47 654.04,-347.97 644.04,-344.47 644.04,-351.47"/>
</g>
<!-- Experience/Utils/Sizes.js&#45;&gt;Experience/Experience.js -->
<g id="edge23" class="edge">
<title>Experience/Utils/Sizes.js&#45;&gt;Experience/Experience.js</title>
<path fill="none" stroke="#757575" d="M405.78,-508.7C400.12,-506.29 394.71,-503.41 389.75,-499.97 327.89,-457.11 290.69,-370.65 276.83,-328.98"/>
<polygon fill="#757575" stroke="#757575" points="280.25,-328.2 273.93,-319.71 273.57,-330.29 280.25,-328.2"/>
</g>
<!-- Experience/Utils/Sizes.js&#45;&gt;Experience/Utils/EventEmitter.js -->
<g id="edge24" class="edge">
<title>Experience/Utils/Sizes.js&#45;&gt;Experience/Utils/EventEmitter.js</title>
<path fill="none" stroke="#757575" d="M553.9,-499.65C564.63,-497.11 575.57,-494.21 585.75,-490.97 623.64,-478.92 665.27,-460.56 693.82,-447.13"/>
<polygon fill="#757575" stroke="#757575" points="695.19,-450.35 702.72,-442.9 692.19,-444.03 695.19,-450.35"/>
</g>
<!-- Experience/Utils/Time.js&#45;&gt;Experience/Utils/EventEmitter.js -->
<g id="edge25" class="edge">
<title>Experience/Utils/Time.js&#45;&gt;Experience/Utils/EventEmitter.js</title>
<path fill="none" stroke="#757575" d="M562.75,-457.64C588.32,-453.38 617.16,-448.58 643.56,-444.18"/>
<polygon fill="#757575" stroke="#757575" points="643.92,-447.67 653.21,-442.58 642.77,-440.77 643.92,-447.67"/>
</g>
<!-- Experience/Utils/UserInputs.js&#45;&gt;Experience/Experience.js -->
<g id="edge26" class="edge">
<title>Experience/Utils/UserInputs.js&#45;&gt;Experience/Experience.js</title>
<path fill="none" stroke="#757575" d="M455.56,-234.26C436.24,-238.84 411.12,-244.18 389.75,-251.97 362.81,-261.8 334.35,-276.66 312.01,-288.49"/>
<polygon fill="#757575" stroke="#757575" points="310.42,-285.37 303.23,-293.15 313.7,-291.56 310.42,-285.37"/>
</g>
<!-- Experience/World/World.js&#45;&gt;Experience/Experience.js -->
<g id="edge29" class="edge">
<title>Experience/World/World.js&#45;&gt;Experience/Experience.js</title>
<path fill="none" stroke="#757575" d="M446.71,-116.32C428.05,-120.69 406.37,-127.14 389.75,-138.97 336.09,-177.18 299.34,-247.69 282.01,-283.82"/>
<polygon fill="#757575" stroke="#757575" points="279.02,-281.95 277.9,-292.48 285.35,-284.94 279.02,-281.95"/>
</g>
<!-- Experience/Tones.js -->
<g id="node13" class="node">
<title>Experience/Tones.js</title>
<path fill="none" stroke="#ff6c60" d="M790.33,-178.85C790.33,-178.85 669.42,-178.85 669.42,-178.85 665.46,-178.85 661.5,-174.89 661.5,-170.93 661.5,-170.93 661.5,-163.01 661.5,-163.01 661.5,-159.05 665.46,-155.1 669.42,-155.1 669.42,-155.1 790.33,-155.1 790.33,-155.1 794.29,-155.1 798.25,-159.05 798.25,-163.01 798.25,-163.01 798.25,-170.93 798.25,-170.93 798.25,-174.89 794.29,-178.85 790.33,-178.85"/>
<text xml:space="preserve" text-anchor="middle" x="729.88" y="-161.55" font-family="Arial" font-size="14.00" fill="#ff6c60">Experience/Tones.js</text>
</g>
<!-- Experience/World/World.js&#45;&gt;Experience/Tones.js -->
<g id="edge30" class="edge">
<title>Experience/World/World.js&#45;&gt;Experience/Tones.js</title>
<path fill="none" stroke="#757575" d="M526.65,-116.26C553.13,-124.62 589.41,-135.65 621.75,-143.97 632.85,-146.83 644.66,-149.61 656.22,-152.2"/>
<polygon fill="#757575" stroke="#757575" points="655.21,-155.56 665.73,-154.3 656.72,-148.73 655.21,-155.56"/>
</g>
<!-- Experience/UI.js -->
<g id="node14" class="node">
<title>Experience/UI.js</title>
<path fill="none" stroke="#ff6c60" d="M779.08,-134.85C779.08,-134.85 680.67,-134.85 680.67,-134.85 676.71,-134.85 672.75,-130.89 672.75,-126.93 672.75,-126.93 672.75,-119.01 672.75,-119.01 672.75,-115.05 676.71,-111.1 680.67,-111.1 680.67,-111.1 779.08,-111.1 779.08,-111.1 783.04,-111.1 787,-115.05 787,-119.01 787,-119.01 787,-126.93 787,-126.93 787,-130.89 783.04,-134.85 779.08,-134.85"/>
<text xml:space="preserve" text-anchor="middle" x="729.88" y="-117.55" font-family="Arial" font-size="14.00" fill="#ff6c60">Experience/UI.js</text>
</g>
<!-- Experience/World/World.js&#45;&gt;Experience/UI.js -->
<g id="edge31" class="edge">
<title>Experience/World/World.js&#45;&gt;Experience/UI.js</title>
<path fill="none" stroke="#757575" d="M575.44,-110.83C603.65,-113.06 634.53,-115.51 661.15,-117.61"/>
<polygon fill="#757575" stroke="#757575" points="660.52,-121.07 670.76,-118.37 661.07,-114.09 660.52,-121.07"/>
</g>
<!-- Experience/World/Environment.js -->
<g id="node17" class="node">
<title>Experience/World/Environment.js</title>
<path fill="none" stroke="#ff6c60" d="M830.08,-88.85C830.08,-88.85 629.67,-88.85 629.67,-88.85 625.71,-88.85 621.75,-84.89 621.75,-80.93 621.75,-80.93 621.75,-73.01 621.75,-73.01 621.75,-69.05 625.71,-65.1 629.67,-65.1 629.67,-65.1 830.08,-65.1 830.08,-65.1 834.04,-65.1 838,-69.05 838,-73.01 838,-73.01 838,-80.93 838,-80.93 838,-84.89 834.04,-88.85 830.08,-88.85"/>
<text xml:space="preserve" text-anchor="middle" x="729.88" y="-71.55" font-family="Arial" font-size="14.00" fill="#ff6c60">Experience/World/Environment.js</text>
</g>
<!-- Experience/World/World.js&#45;&gt;Experience/World/Environment.js -->
<g id="edge32" class="edge">
<title>Experience/World/World.js&#45;&gt;Experience/World/Environment.js</title>
<path fill="none" stroke="#757575" d="M575.44,-94.22C586.74,-92.95 598.47,-91.63 610.18,-90.32"/>
<polygon fill="#757575" stroke="#757575" points="610.34,-93.82 619.88,-89.23 609.56,-86.86 610.34,-93.82"/>
</g>
<!-- Experience/World/Stage.js -->
<g id="node18" class="node">
<title>Experience/World/Stage.js</title>
<path fill="none" stroke="#ff6c60" d="M809.46,-39.85C809.46,-39.85 650.29,-39.85 650.29,-39.85 646.33,-39.85 642.38,-35.89 642.38,-31.93 642.38,-31.93 642.38,-24.01 642.38,-24.01 642.38,-20.05 646.33,-16.1 650.29,-16.1 650.29,-16.1 809.46,-16.1 809.46,-16.1 813.42,-16.1 817.38,-20.05 817.38,-24.01 817.38,-24.01 817.38,-31.93 817.38,-31.93 817.38,-35.89 813.42,-39.85 809.46,-39.85"/>
<text xml:space="preserve" text-anchor="middle" x="729.88" y="-22.55" font-family="Arial" font-size="14.00" fill="#ff6c60">Experience/World/Stage.js</text>
</g>
<!-- Experience/World/World.js&#45;&gt;Experience/World/Stage.js -->
<g id="edge33" class="edge">
<title>Experience/World/World.js&#45;&gt;Experience/World/Stage.js</title>
<path fill="none" stroke="#757575" d="M520.45,-91.61C547.23,-81.39 586.7,-66.85 621.75,-55.97 636.23,-51.47 651.96,-47.09 666.8,-43.18"/>
<polygon fill="#757575" stroke="#757575" points="667.67,-46.57 676.46,-40.66 665.9,-39.79 667.67,-46.57"/>
</g>
<!-- Experience/Tones.js&#45;&gt;Experience/Experience.js -->
<g id="edge17" class="edge">
<title>Experience/Tones.js&#45;&gt;Experience/Experience.js</title>
<path fill="none" stroke="#757575" d="M661.15,-161.87C590.43,-159.21 477.75,-162.6 389.75,-200.97 346.5,-219.83 307.84,-260.4 286.96,-285.22"/>
<polygon fill="#757575" stroke="#757575" points="284.45,-282.76 280.82,-292.72 289.86,-287.2 284.45,-282.76"/>
</g>
<!-- Experience/UI.js&#45;&gt;Experience/Experience.js -->
<g id="edge18" class="edge">
<title>Experience/UI.js&#45;&gt;Experience/Experience.js</title>
<path fill="none" stroke="#757575" d="M672.45,-123.6C588.93,-125.39 437.14,-132.21 389.75,-157.97 336.9,-186.7 298.89,-249.61 281.4,-283.42"/>
<polygon fill="#757575" stroke="#757575" points="278.29,-281.82 276.94,-292.33 284.55,-284.95 278.29,-281.82"/>
</g>
<!-- Experience/intervals.js -->
<g id="node15" class="node">
<title>Experience/intervals.js</title>
<path fill="none" stroke="#cfffac" d="M1017.08,-134.85C1017.08,-134.85 881.92,-134.85 881.92,-134.85 877.96,-134.85 874,-130.89 874,-126.93 874,-126.93 874,-119.01 874,-119.01 874,-115.05 877.96,-111.1 881.92,-111.1 881.92,-111.1 1017.08,-111.1 1017.08,-111.1 1021.04,-111.1 1025,-115.05 1025,-119.01 1025,-119.01 1025,-126.93 1025,-126.93 1025,-130.89 1021.04,-134.85 1017.08,-134.85"/>
<text xml:space="preserve" text-anchor="middle" x="949.5" y="-117.55" font-family="Arial" font-size="14.00" fill="#cfffac">Experience/intervals.js</text>
</g>
<!-- Experience/UI.js&#45;&gt;Experience/intervals.js -->
<g id="edge19" class="edge">
<title>Experience/UI.js&#45;&gt;Experience/intervals.js</title>
<path fill="none" stroke="#757575" d="M787.49,-122.97C810.31,-122.97 837.15,-122.97 862.31,-122.97"/>
<polygon fill="#757575" stroke="#757575" points="862.21,-126.47 872.21,-122.97 862.21,-119.47 862.21,-126.47"/>
</g>
<!-- Experience/World/Environment.js&#45;&gt;Experience/Experience.js -->
<g id="edge27" class="edge">
<title>Experience/World/Environment.js&#45;&gt;Experience/Experience.js</title>
<path fill="none" stroke="#757575" d="M685.14,-64.64C616.57,-48.01 482.05,-26.51 389.75,-82.97 316.36,-127.86 285.52,-234.72 275.1,-282.35"/>
<polygon fill="#757575" stroke="#757575" points="271.67,-281.63 273.08,-292.13 278.53,-283.05 271.67,-281.63"/>
</g>
<!-- Experience/World/Stage.js&#45;&gt;Experience/Experience.js -->
<g id="edge28" class="edge">
<title>Experience/World/Stage.js&#45;&gt;Experience/Experience.js</title>
<path fill="none" stroke="#757575" d="M681.95,-15.63C611.8,-0.09 478.38,17.9 389.75,-41.97 306.04,-98.51 280.35,-228.89 273.17,-282.4"/>
<polygon fill="#757575" stroke="#757575" points="269.71,-281.85 271.97,-292.21 276.66,-282.71 269.71,-281.85"/>
</g>
<!-- script.js -->
<g id="node19" class="node">
<title>script.js</title>
<path fill="none" stroke="#c6c5fe" d="M97.71,-275.85C97.71,-275.85 51.79,-275.85 51.79,-275.85 47.83,-275.85 43.88,-271.89 43.88,-267.93 43.88,-267.93 43.88,-260.01 43.88,-260.01 43.88,-256.05 47.83,-252.1 51.79,-252.1 51.79,-252.1 97.71,-252.1 97.71,-252.1 101.67,-252.1 105.62,-256.05 105.62,-260.01 105.62,-260.01 105.62,-267.93 105.62,-267.93 105.62,-271.89 101.67,-275.85 97.71,-275.85"/>
<text xml:space="preserve" text-anchor="middle" x="74.75" y="-258.55" font-family="Arial" font-size="14.00" fill="#c6c5fe">script.js</text>
</g>
<!-- script.js&#45;&gt;Experience/Experience.js -->
<g id="edge34" class="edge">
<title>script.js&#45;&gt;Experience/Experience.js</title>
<path fill="none" stroke="#757575" d="M105.89,-270.53C131.19,-276.04 168.3,-284.12 200.69,-291.18"/>
<polygon fill="#757575" stroke="#757575" points="199.93,-294.59 210.45,-293.3 201.42,-287.75 199.93,-294.59"/>
</g>
</g>
</svg>
